REM DIRINDEX 1\2,1\3,1\4,1\5
REM DIRNAME cjc046,folder01,folder02,folder03,folder04
TITLE ""
FILE "174.mp3" MP3
  TRACK 01 AUDIO
    TITLE "0:"
    INDEX 01 00:00:00
  TRACK 02 AUDIO
    TITLE "2:cjc046_5320"
    INDEX 01 00:00:13
  TRACK 03 AUDIO
    TITLE "0:"
    INDEX 01 00:01:24
  TRACK 04 AUDIO
    TITLE "3:cjc046_5321"
    INDEX 01 00:01:42
  TRACK 05 AUDIO
    TITLE "0:"
    INDEX 01 00:02:67
  TRACK 06 AUDIO
    TITLE "4:cjc046_5322"
    INDEX 01 00:03:14
  TRACK 07 AUDIO
    TITLE "0:"
    INDEX 01 00:04:25
  TRACK 08 AUDIO
    TITLE "2:cjc046_5323"
    INDEX 01 00:05:30
  TRACK 09 AUDIO
    TITLE "0:"
    INDEX 01 00:06:43
  TRACK 10 AUDIO
    TITLE "3:cjc046_5324"
    INDEX 01 00:06:61
  TRACK 11 AUDIO
    TITLE "0:"
    INDEX 01 00:08:32
  TRACK 12 AUDIO
    TITLE "4:cjc046_5325"
    INDEX 01 00:08:54
  TRACK 13 AUDIO
    TITLE "0:"
    INDEX 01 00:09:63
  TRACK 14 AUDIO
    TITLE "2:cjc046_5326"
    INDEX 01 00:11:03
  TRACK 15 AUDIO
    TITLE "0:"
    INDEX 01 00:12:24
  TRACK 16 AUDIO
    TITLE "3:cjc046_5327"
    INDEX 01 00:12:44
  TRACK 17 AUDIO
    TITLE "0:"
    INDEX 01 00:13:45
  TRACK 18 AUDIO
    TITLE "4:cjc046_5328"
    INDEX 01 00:13:65
  TRACK 19 AUDIO
    TITLE "0:"
    INDEX 01 00:15:13
  TRACK 20 AUDIO
    TITLE "2:cjc046_5329"
    INDEX 01 00:16:20
  TRACK 21 AUDIO
    TITLE "0:"
    INDEX 01 00:17:33
  TRACK 22 AUDIO
    TITLE "3:cjc046_5330"
    INDEX 01 00:17:49
  TRACK 23 AUDIO
    TITLE "0:"
    INDEX 01 00:18:58
  TRACK 24 AUDIO
    TITLE "4:cjc046_5331"
    INDEX 01 00:19:03
  TRACK 25 AUDIO
    TITLE "0:"
    INDEX 01 00:20:16
  TRACK 26 AUDIO
    TITLE "2:cjc046_5332"
    INDEX 01 00:21:21
  TRACK 27 AUDIO
    TITLE "0:"
    INDEX 01 00:22:34
  TRACK 28 AUDIO
    TITLE "3:cjc046_5333"
    INDEX 01 00:22:56
  TRACK 29 AUDIO
    TITLE "0:"
    INDEX 01 00:23:69
  TRACK 30 AUDIO
    TITLE "4:cjc046_5334"
    INDEX 01 00:24:06
  TRACK 31 AUDIO
    TITLE "0:"
    INDEX 01 00:25:19
  TRACK 32 AUDIO
    TITLE "2:cjc046_5335"
    INDEX 01 00:26:28
  TRACK 33 AUDIO
    TITLE "0:"
    INDEX 01 00:27:49
  TRACK 34 AUDIO
    TITLE "3:cjc046_5336"
    INDEX 01 00:28:04
  TRACK 35 AUDIO
    TITLE "0:"
    INDEX 01 00:29:21
  TRACK 36 AUDIO
    TITLE "4:cjc046_5337"
    INDEX 01 00:29:40
  TRACK 37 AUDIO
    TITLE "0:"
    INDEX 01 00:30:61
  TRACK 38 AUDIO
    TITLE "2:cjc046_5338"
    INDEX 01 00:32:01
  TRACK 39 AUDIO
    TITLE "0:"
    INDEX 01 00:33:15
  TRACK 40 AUDIO
    TITLE "3:cjc046_5339"
    INDEX 01 00:33:36
  TRACK 41 AUDIO
    TITLE "0:"
    INDEX 01 00:34:47
  TRACK 42 AUDIO
    TITLE "4:cjc046_5340"
    INDEX 01 00:34:61
  TRACK 43 AUDIO
    TITLE "0:"
    INDEX 01 00:36:01
  TRACK 44 AUDIO
    TITLE "2:cjc046_5341"
    INDEX 01 00:37:12
  TRACK 45 AUDIO
    TITLE "0:"
    INDEX 01 00:38:28
  TRACK 46 AUDIO
    TITLE "3:cjc046_5342"
    INDEX 01 00:38:49
  TRACK 47 AUDIO
    TITLE "0:"
    INDEX 01 00:39:54
  TRACK 48 AUDIO
    TITLE "4:cjc046_5343"
    INDEX 01 00:39:74
  TRACK 49 AUDIO
    TITLE "0:"
    INDEX 01 00:41:16
  TRACK 50 AUDIO
    TITLE "2:cjc046_5344"
    INDEX 01 00:42:25
  TRACK 51 AUDIO
    TITLE "0:"
    INDEX 01 00:43:25
  TRACK 52 AUDIO
    TITLE "3:cjc046_5345"
    INDEX 01 00:43:48
  TRACK 53 AUDIO
    TITLE "0:"
    INDEX 01 00:44:52
  TRACK 54 AUDIO
    TITLE "4:cjc046_5346"
    INDEX 01 00:44:69
  TRACK 55 AUDIO
    TITLE "0:"
    INDEX 01 00:45:73
  TRACK 56 AUDIO
    TITLE "2:cjc046_5347"
    INDEX 01 00:47:07
  TRACK 57 AUDIO
    TITLE "0:"
    INDEX 01 00:48:22
  TRACK 58 AUDIO
    TITLE "3:cjc046_5348"
    INDEX 01 00:48:36
  TRACK 59 AUDIO
    TITLE "0:"
    INDEX 01 00:49:67
  TRACK 60 AUDIO
    TITLE "4:cjc046_5349"
    INDEX 01 00:50:07
  TRACK 61 AUDIO
    TITLE "0:"
    INDEX 01 00:51:22
  TRACK 62 AUDIO
    TITLE "2:cjc046_5350"
    INDEX 01 00:52:32
  TRACK 63 AUDIO
    TITLE "0:"
    INDEX 01 00:53:43
  TRACK 64 AUDIO
    TITLE "3:cjc046_5351"
    INDEX 01 00:53:60
  TRACK 65 AUDIO
    TITLE "0:"
    INDEX 01 00:55:24
  TRACK 66 AUDIO
    TITLE "4:cjc046_5352"
    INDEX 01 00:55:44
  TRACK 67 AUDIO
    TITLE "0:"
    INDEX 01 00:56:55
  TRACK 68 AUDIO
    TITLE "2:cjc046_5353"
    INDEX 01 00:57:64
  TRACK 69 AUDIO
    TITLE "0:"
    INDEX 01 00:59:16
  TRACK 70 AUDIO
    TITLE "3:cjc046_5354"
    INDEX 01 00:59:32
  TRACK 71 AUDIO
    TITLE "0:"
    INDEX 01 01:00:66
  TRACK 72 AUDIO
    TITLE "4:cjc046_5355"
    INDEX 01 01:00:72
  TRACK 73 AUDIO
    TITLE "0:"
    INDEX 01 01:02:22
  TRACK 74 AUDIO
    TITLE "2:cjc046_5356"
    INDEX 01 01:03:31
  TRACK 75 AUDIO
    TITLE "0:"
    INDEX 01 01:04:39
  TRACK 76 AUDIO
    TITLE "3:cjc046_5357"
    INDEX 01 01:04:58
  TRACK 77 AUDIO
    TITLE "0:"
    INDEX 01 01:06:04
  TRACK 78 AUDIO
    TITLE "4:cjc046_5358"
    INDEX 01 01:06:20
  TRACK 79 AUDIO
    TITLE "0:"
    INDEX 01 01:07:27
  TRACK 80 AUDIO
    TITLE "2:cjc046_5359"
    INDEX 01 01:08:36
  TRACK 81 AUDIO
    TITLE "0:"
    INDEX 01 01:09:56
  TRACK 82 AUDIO
    TITLE "3:cjc046_5360"
    INDEX 01 01:09:69
  TRACK 83 AUDIO
    TITLE "0:"
    INDEX 01 01:11:11
  TRACK 84 AUDIO
    TITLE "4:cjc046_5361"
    INDEX 01 01:11:29
  TRACK 85 AUDIO
    TITLE "0:"
    INDEX 01 01:12:46
  TRACK 86 AUDIO
    TITLE "2:cjc046_5362"
    INDEX 01 01:13:53
  TRACK 87 AUDIO
    TITLE "0:"
    INDEX 01 01:14:61
  TRACK 88 AUDIO
    TITLE "3:cjc046_5363"
    INDEX 01 01:15:05
  TRACK 89 AUDIO
    TITLE "0:"
    INDEX 01 01:16:58
  TRACK 90 AUDIO
    TITLE "4:cjc046_5364"
    INDEX 01 01:17:00
  TRACK 91 AUDIO
    TITLE "0:"
    INDEX 01 01:18:11
